<?xml version="1.0" encoding="UTF-8" standalone="no"?>
<!-- Created with Inkscape (http://www.inkscape.org/) -->

<svg
   version="1.1"
   id="svg2"
   width="51.715675"
   height="52.364368"
   viewBox="0 0 51.715675 52.364369"
   sodipodi:docname="leaf.svg"
   xmlns:inkscape="http://www.inkscape.org/namespaces/inkscape"
   xmlns:sodipodi="http://sodipodi.sourceforge.net/DTD/sodipodi-0.dtd"
   xmlns="http://www.w3.org/2000/svg"
   xmlns:svg="http://www.w3.org/2000/svg">
  <defs
     id="defs6">
    <inkscape:path-effect
       effect="bspline"
       id="path-effect2180"
       is_visible="true"
       lpeversion="1"
       weight="33.333333"
       steps="2"
       helper_size="0"
       apply_no_weight="true"
       apply_with_weight="true"
       only_selected="false" />
    <inkscape:path-effect
       effect="bspline"
       id="path-effect2113"
       is_visible="true"
       lpeversion="1"
       weight="33.333333"
       steps="2"
       helper_size="0"
       apply_no_weight="true"
       apply_with_weight="true"
       only_selected="false" />
    <inkscape:path-effect
       effect="bspline"
       id="path-effect2109"
       is_visible="true"
       lpeversion="1"
       weight="33.333333"
       steps="2"
       helper_size="0"
       apply_no_weight="true"
       apply_with_weight="true"
       only_selected="false" />
    <inkscape:path-effect
       effect="bspline"
       id="path-effect2063"
       is_visible="true"
       lpeversion="1"
       weight="33.333333"
       steps="2"
       helper_size="0"
       apply_no_weight="true"
       apply_with_weight="true"
       only_selected="false" />
    <inkscape:path-effect
       effect="bspline"
       id="path-effect2003"
       is_visible="true"
       lpeversion="1"
       weight="33.333333"
       steps="2"
       helper_size="0"
       apply_no_weight="true"
       apply_with_weight="true"
       only_selected="false" />
    <inkscape:path-effect
       effect="bspline"
       id="path-effect1999"
       is_visible="true"
       lpeversion="1"
       weight="33.333333"
       steps="2"
       helper_size="0"
       apply_no_weight="true"
       apply_with_weight="true"
       only_selected="false" />
    <inkscape:path-effect
       effect="bspline"
       id="path-effect1995"
       is_visible="true"
       lpeversion="1"
       weight="33.333333"
       steps="2"
       helper_size="0"
       apply_no_weight="true"
       apply_with_weight="true"
       only_selected="false" />
    <inkscape:path-effect
       effect="bspline"
       id="path-effect1991"
       is_visible="true"
       lpeversion="1"
       weight="33.333333"
       steps="2"
       helper_size="0"
       apply_no_weight="true"
       apply_with_weight="true"
       only_selected="false" />
    <inkscape:path-effect
       effect="bspline"
       id="path-effect1987"
       is_visible="true"
       lpeversion="1"
       weight="33.333333"
       steps="2"
       helper_size="0"
       apply_no_weight="true"
       apply_with_weight="true"
       only_selected="false" />
    <inkscape:path-effect
       effect="bspline"
       id="path-effect1887"
       is_visible="true"
       lpeversion="1"
       weight="33.333333"
       steps="2"
       helper_size="0"
       apply_no_weight="true"
       apply_with_weight="true"
       only_selected="false" />
    <inkscape:path-effect
       effect="bspline"
       id="path-effect857"
       is_visible="true"
       lpeversion="1"
       weight="33.333333"
       steps="2"
       helper_size="0"
       apply_no_weight="true"
       apply_with_weight="true"
       only_selected="false" />
    <inkscape:path-effect
       effect="bspline"
       id="path-effect299"
       is_visible="true"
       lpeversion="1"
       weight="33.333333"
       steps="2"
       helper_size="0"
       apply_no_weight="true"
       apply_with_weight="true"
       only_selected="false" />
  </defs>
  <sodipodi:namedview
     id="namedview4"
     pagecolor="#ffffff"
     bordercolor="#999999"
     borderopacity="1"
     inkscape:showpageshadow="0"
     inkscape:pageopacity="0"
     inkscape:pagecheckerboard="0"
     inkscape:deskcolor="#d1d1d1"
     showgrid="false" />
  <g
     inkscape:groupmode="layer"
     inkscape:label="Image"
     id="g8"
     transform="translate(-1701.9972,-867.99217)">
    <path
       style="display:inline;opacity:1;fill:#256d2d;fill-opacity:0.996078;stroke:#256d2d;stroke-opacity:0.101961"
       d="m 1703.6146,868.9272 c -0.9717,6.18886 -1.9436,12.37856 0.028,18.97885 1.9713,6.60029 6.8843,13.61139 12.4584,18.36879 5.5742,4.7574 11.8088,7.26156 16.4195,8.92786 4.6108,1.6663 7.5974,2.49481 10.762,3.11801 3.1646,0.6232 6.506,1.04111 9.8486,1.45917 -0.7276,-5.42717 -1.4551,-10.85324 -2.6594,-15.81855 -1.2044,-4.96532 -2.8858,-9.46864 -5.2153,-13.68885 -2.3295,-4.22022 -5.3072,-8.15688 -7.5948,-10.8146 -2.2877,-2.65772 -3.8853,-4.03617 -6.7731,-5.77196 -2.8877,-1.73578 -7.0654,-3.82847 -11.826,-4.68133 -4.7607,-0.85287 -10.1045,-0.4651 -15.4475,-0.0774 z"
       id="path297"
       inkscape:original-d="m 1703.6146,868.9272 c 0,0 -1.9425,12.37873 -2.9152,18.56659 4.9143,7.01238 9.8273,14.02349 14.7394,21.03373 6.2358,2.50525 12.4704,5.0094 18.7041,7.51259 2.9878,0.82955 5.9744,1.65807 8.9601,2.4856 3.3436,0.41906 10.0277,1.25417 10.0277,1.25417 0,0 -1.4542,-10.85335 -2.1828,-16.28152 -1.6805,-4.50254 -3.3618,-9.0059 -5.0443,-13.51035 -2.9769,-3.93586 -5.9546,-7.87256 -8.9335,-11.81034 -1.5966,-1.37746 -3.1943,-2.75587 -4.7929,-4.1353 -4.177,-2.09181 -8.3547,-4.18454 -12.5336,-6.2783 -5.3421,0.38872 -16.029,1.16313 -16.029,1.16313 z"
       inkscape:path-effect="#path-effect299"
       inkscape:label="background"
       inkscape:export-filename="leaf.svg"
       inkscape:export-xdpi="96"
       inkscape:export-ydpi="96" />
    <g
       id="g2925"
       inkscape:label="veins"
       style="fill:#254d2c;fill-opacity:1;stroke:#254d2c;stroke-opacity:0.101961">
      <path
         style="opacity:0.546777;fill:#254d2c;fill-opacity:1;stroke:#254d2c;stroke-width:0;stroke-dasharray:none;stroke-opacity:0.101961"
         d="m 1712.6381,873.47496 c 0.5413,-0.34623 3.1798,-0.0711 6.1744,0.38413 2.9945,0.45524 6.3446,1.09043 8.9707,1.68009 2.6261,0.58967 4.528,1.13366 5.8047,1.64913 1.2766,0.51546 1.9269,1.00102 2.5784,1.48743 -1.4376,-0.5587 -2.874,-1.11695 -4.8939,-1.54469 -2.02,-0.42775 -4.6222,-0.7242 -7.3966,-0.93177 -2.7744,-0.20758 -5.7217,-0.32624 -8.6681,-0.44486 -1.556,-0.96698 -3.1108,-1.93323 -2.5696,-2.27946 z"
         id="path1985"
         inkscape:original-d="m 1710.5397,872.85349 c 2.6396,0.27613 5.2781,0.55125 7.9159,0.82539 3.3513,0.63623 6.7014,1.27142 10.0506,1.90563 1.9029,0.54501 3.8048,1.08899 5.7057,1.63199 0.6525,0.48742 1.9544,1.45924 1.9544,1.45924 0,0 -2.8742,-1.1164 -4.3127,-1.6761 -2.6013,-0.29546 -5.2035,-0.59191 -7.8067,-0.88936 -2.9455,-0.11762 -8.8392,-0.35586 -8.8392,-0.35586 0,0 -3.111,-1.93295 -4.668,-2.90093 z"
         inkscape:path-effect="#path-effect1987"
         sodipodi:nodetypes="ccccccccc" />
      <path
         style="opacity:0.546777;fill:#254d2c;fill-opacity:1;stroke:#254d2c;stroke-width:0;stroke-dasharray:none;stroke-opacity:0.101961"
         d="m 1717.6714,880.78474 c -0.3037,0.98831 -0.9108,2.96428 -1.5152,6.00899 -0.6045,3.0447 -1.2062,7.15776 -1.4942,10.13366 -0.2879,2.9759 -0.2623,4.81557 -0.2366,6.65516 0.1685,-1.67772 0.3368,-3.35454 0.5893,-4.93793 0.2524,-1.58339 0.5889,-3.07225 1.1964,-5.32088 0.6074,-2.24862 1.4858,-5.2568 2.0885,-7.30338 0.6027,-2.04659 0.9298,-3.1315 1.0991,-3.67732 0.1693,-0.54582 0.1792,-0.55112 0.1899,-0.55682 0,0 -1.744,-1.57449 -1.744,-1.57449 0.044,-0.13844 0.087,-0.27615 0.1091,-0.34573 0.022,-0.0696 0.021,-0.0696 -0.2823,0.91874 z"
         id="path1989"
         inkscape:original-d="m 1717.9751,879.79643 c -0.6062,1.97698 -1.2133,3.95297 -1.8215,5.92795 -0.6007,4.11422 -1.2025,8.22727 -1.8052,12.3394 0.02,1.83959 0.077,5.51877 0.077,5.51877 0,0 0.3379,-3.35443 0.5054,-5.03315 0.3375,-1.48791 0.674,-2.97677 1.0095,-4.46665 0.8794,-3.00729 1.7578,-6.01546 2.6352,-9.02469 0.328,-1.08394 0.6551,-2.16883 0.9811,-3.25474 0.012,-0.005 0.032,-0.0171 0.032,-0.0171 l -1.744,-1.57449 c 0,0 0.088,-0.27587 0.131,-0.41531 z"
         inkscape:path-effect="#path-effect1991"
         sodipodi:nodetypes="scccccccccs" />
      <path
         style="opacity:0.546777;fill:#254d2c;fill-opacity:1;stroke:#254d2c;stroke-width:0;stroke-dasharray:none;stroke-opacity:0.101961"
         d="m 1725.3818,887.51479 c -0.5247,2.03514 -1.0496,4.07097 -1.6251,7.20516 -0.5755,3.13419 -1.2017,7.36713 -1.3433,10.15319 -0.1416,2.78607 0.2007,4.12361 0.5433,5.46235 0.1249,-2.45414 0.2498,-4.90734 0.5938,-7.63208 0.344,-2.72474 0.9072,-5.71976 1.6364,-7.87189 0.7292,-2.15212 1.6244,-3.46087 2.5195,-4.76943 0,0 -2.3246,-2.5473 -2.3246,-2.5473 z"
         id="path1993"
         inkscape:original-d="m 1725.3818,887.51479 c 0,0 -1.0485,4.07127 -1.5742,6.10541 -0.6252,4.23411 -1.2515,8.46704 -1.8787,12.69906 0.3436,1.33977 1.0278,4.01623 1.0278,4.01623 0,0 0.2508,-4.90729 0.3747,-7.36243 0.5643,-2.99416 1.1275,-5.98919 1.6897,-8.98528 0.8961,-1.30761 2.6853,-3.92569 2.6853,-3.92569 z"
         inkscape:path-effect="#path-effect1995"
         sodipodi:nodetypes="cccccccc" />
      <path
         style="opacity:0.546777;fill:#254d2c;fill-opacity:1;stroke:#254d2c;stroke-width:0;stroke-dasharray:none;stroke-opacity:0.101961"
         d="m 1731.7935,894.53906 c -0.3899,3.86323 -0.7799,7.72736 -0.6421,10.89623 0.1377,3.16887 0.8027,5.643 1.3284,7.15324 0.5257,1.51024 0.9109,2.05547 1.2968,2.60182 -0.4114,-1.74085 -0.8225,-3.48053 -1.0472,-5.61524 -0.2247,-2.13471 -0.2623,-4.66302 -0.1193,-6.90897 0.1429,-2.24595 0.4668,-4.21003 0.7906,-6.17332 0,0 -1.6072,-1.95376 -1.6072,-1.95376 z"
         id="path1997"
         inkscape:original-d="m 1731.7935,894.53906 c 0,0 -0.7788,7.72747 -1.1697,11.58969 0.666,2.47523 1.331,4.94936 1.995,7.42254 0.3869,0.54736 1.1578,1.63906 1.1578,1.63906 0,0 -0.8218,-3.4807 -1.2342,-5.22255 -0.037,-2.52741 -0.074,-5.05573 -0.113,-7.5851 0.3248,-1.96232 0.9713,-5.88988 0.9713,-5.88988 z"
         inkscape:path-effect="#path-effect1999"
         sodipodi:nodetypes="cccccccc" />
      <path
         style="opacity:0.546777;fill:#254d2c;fill-opacity:1;stroke:#254d2c;stroke-width:0;stroke-dasharray:none;stroke-opacity:0.101961"
         d="m 1740.3831,904.07649 c 0.011,2.29185 0.023,4.58472 0.4657,6.81113 0.443,2.22641 1.3168,4.38587 2.191,6.54659 -0.4797,-2.22657 -0.9591,-4.45197 -1.077,-6.18331 -0.1179,-1.73134 0.1266,-2.96782 0.3709,-4.20353 0,0 -1.9344,-2.23367 -1.9344,-2.23367 0,0 -0.016,-0.73721 -0.016,-0.73721 z"
         id="path2001"
         inkscape:original-d="m 1740.3831,904.07649 c 0,0 0.024,4.58471 0.034,6.87556 0.8753,2.16176 2.6227,6.48216 2.6227,6.48216 0,0 -0.9584,-4.45213 -1.4391,-6.6797 0.2453,-1.23473 0.733,-3.70714 0.733,-3.70714 l -1.9344,-2.23367 z"
         inkscape:path-effect="#path-effect2003"
         sodipodi:nodetypes="ccccccc"
         inkscape:label="path2001" />
      <path
         style="opacity:0.546777;fill:#254d2c;fill-opacity:1;stroke:#254d2c;stroke-width:0;stroke-dasharray:none;stroke-opacity:0.101961"
         d="m 1723.8518,881.41655 c 1.3262,0.20049 3.6517,0.64557 6.6985,1.74761 3.0467,1.10204 6.8122,2.85964 9.2946,4.30654 2.4824,1.4469 3.6788,2.58062 4.8764,3.71544 -1.4941,-0.78144 -2.9873,-1.56242 -4.4488,-2.22189 -1.4616,-0.65948 -2.8904,-1.19679 -5.1027,-1.92533 -2.2122,-0.72853 -5.2081,-1.64828 -7.1446,-2.21351 -1.9365,-0.56523 -2.8102,-0.77509 -3.3403,-0.99357 -0.5301,-0.21849 -0.7092,-0.44441 -0.888,-0.66998 0,0 -1.9276,-1.85713 -1.9276,-1.85713 0.3277,-0.0443 0.6563,-0.0887 1.9825,0.11182 z"
         id="path2059"
         sodipodi:nodetypes="scccccccccs"
         inkscape:original-d="m 1722.8524,881.17192 c 2.3255,0.4459 4.651,0.89098 6.9758,1.33513 3.7686,1.75962 7.5341,3.51721 11.3004,5.27463 1.1987,1.13595 3.5927,3.40446 3.5927,3.40446 0,0 -2.9878,-1.56148 -4.4823,-2.34432 -1.4285,-0.53595 -2.8573,-1.07324 -4.2862,-1.61188 -2.9956,-0.91838 -5.9915,-1.8381 -8.9876,-2.75923 -0.8767,-0.20982 -1.7504,-0.41968 -2.6318,-0.63213 -0.1784,-0.22536 -0.5365,-0.67672 -0.5365,-0.67672 l -1.9276,-1.85713 c 0,0 0.6565,-0.0875 0.9831,-0.13281 z"
         inkscape:path-effect="#path-effect2063" />
      <path
         style="opacity:0.546777;fill:#254d2c;fill-opacity:1;stroke:#254d2c;stroke-width:0;stroke-dasharray:none;stroke-opacity:0.101961"
         d="m 1730.2024,889.66596 c 1.8672,0.57205 3.7349,1.14426 6.3677,2.21025 2.6328,1.06599 6.0309,2.62576 8.1445,3.86462 2.1136,1.23886 2.9417,2.15519 3.7706,3.07251 -1.8619,-1.09103 -3.723,-2.18162 -5.8835,-3.23193 -2.1605,-1.05031 -4.6195,-2.05974 -6.3345,-2.58407 -1.715,-0.52433 -2.6865,-0.56334 -3.6574,-0.60233 0,0 -2.3323,-2.58435 -2.3323,-2.58435 0,0 -0.075,-0.1447 -0.075,-0.1447 z"
         id="path2105"
         sodipodi:nodetypes="ccccccccc"
         inkscape:original-d="m 1730.2024,889.66596 c 0,0 3.7346,1.14537 5.6016,1.71615 3.3984,1.56107 6.7966,3.12076 10.1944,4.67927 0.8274,0.9205 2.4868,2.75196 2.4868,2.75196 0,0 -3.7235,-2.18082 -5.5857,-3.2731 -2.4587,-1.00811 -4.9177,-2.01754 -7.3769,-3.02826 -0.9704,-0.038 -2.9128,-0.11697 -2.9128,-0.11697 l -2.3323,-2.58435 z"
         inkscape:path-effect="#path-effect2109" />
      <path
         style="opacity:0.546777;fill:#254d2c;fill-opacity:1;stroke:#254d2c;stroke-width:0;stroke-dasharray:none;stroke-opacity:0.101961"
         d="m 1738.7579,899.68532 c 1.3399,0.42001 2.6811,0.8404 4.3051,1.53885 1.6241,0.69844 3.5323,1.67508 4.8237,2.38186 1.2915,0.70677 1.965,1.14278 2.6397,1.57954 -1.0084,-0.47077 -2.0157,-0.941 -3.6334,-1.4361 -1.6177,-0.49511 -3.8458,-1.01453 -6.0728,-1.53368 0,0 -2.0623,-2.53047 -2.0623,-2.53047 z"
         id="path2111"
         sodipodi:nodetypes="ccccccc"
         inkscape:original-d="m 1738.7579,899.68532 c 0,0 2.6809,0.84102 4.0198,1.26003 1.9092,0.97766 3.8174,1.95429 5.7246,2.92993 0.6757,0.43778 2.0241,1.31029 2.0241,1.31029 0,0 -2.0159,-0.94055 -3.0253,-1.41232 -2.226,-0.51816 -6.6809,-1.55746 -6.6809,-1.55746 z"
         inkscape:path-effect="#path-effect2113" />
      <path
         style="opacity:0.546777;fill:#254d2c;fill-opacity:1;stroke:#254d2c;stroke-width:0;stroke-dasharray:none;stroke-opacity:0.101961"
         d="m 1747.3235,910.93689 c 0.8399,0.37504 1.681,0.75061 2.4639,1.29686 0.7828,0.54625 1.5078,1.26224 2.2338,1.97923 -0.6914,-0.41454 -1.3816,-0.8284 -1.9881,-1.10189 -0.6065,-0.27348 -1.1293,-0.4058 -1.651,-0.53784 0,0 -1.0586,-1.63636 -1.0586,-1.63636 z"
         id="path2178"
         sodipodi:nodetypes="cccccc"
         inkscape:original-d="m 1747.3235,910.93689 c 0,0 1.6808,0.75109 2.5197,1.12511 0.727,0.71801 2.178,2.15098 2.178,2.15098 0,0 -1.3818,-0.82808 -2.0741,-1.24362 -0.5207,-0.13104 -1.565,-0.39611 -1.565,-0.39611 z"
         inkscape:path-effect="#path-effect2180" />
      <path
         style="display:inline;opacity:0.524859;fill:#254d2c;fill-opacity:1;stroke:#254d2c;stroke-width:0;stroke-dasharray:none;stroke-opacity:0.101961"
         d="m 1704.5372,869.79147 c 1.7749,0.55547 3.551,1.11132 6.6306,3.09645 3.0796,1.98513 7.4638,5.39929 11.8145,9.4941 4.3508,4.09481 8.6678,8.86977 11.898,12.63915 3.2302,3.76938 5.3735,6.53286 7.1718,8.86236 1.7982,2.3295 3.2514,4.22492 4.9039,6.57594 1.6525,2.35102 3.5044,5.15749 4.4757,6.70891 0.9712,1.55142 1.0621,1.84764 1.0914,1.98691 0.029,0.13926 -0.01,0.1212 -0.039,0.1039 -1.3576,-1.90068 -2.7145,-3.80024 -4.4824,-5.88619 -1.7679,-2.08595 -3.9463,-4.35702 -5.8272,-6.50747 -1.881,-2.15044 -3.4643,-4.18032 -6.0392,-7.22617 -2.5749,-3.04586 -6.1412,-7.10747 -9.1084,-10.32857 -2.9672,-3.22111 -5.3352,-5.60147 -8.2062,-8.22437 -2.871,-2.6229 -6.2448,-5.48803 -8.7091,-7.41085 -2.4642,-1.92282 -4.0201,-2.90383 -5.5749,-3.88413 0,0 3e-4,3e-5 3e-4,3e-5 z"
         id="path855"
         inkscape:original-d="m 1704.5372,869.79147 c 0,0 3.5508,1.11195 5.3247,1.66642 4.3854,3.41531 8.7696,6.82949 13.153,10.24273 4.3182,4.77617 8.6352,9.55115 12.9514,14.32523 2.1444,2.76458 4.2877,5.52806 6.43,8.29059 1.4542,1.89647 2.9074,3.79187 4.3595,5.6863 1.853,2.80758 3.7049,5.61405 5.5558,8.41958 0.092,0.29726 0.1828,0.59351 0.2727,0.88877 -0.032,-0.0163 -0.1,-0.0519 -0.1,-0.0519 0,0 -2.7143,-3.80036 -4.0729,-5.70205 -2.1774,-2.27013 -4.3558,-4.54118 -6.5352,-6.81328 -1.5823,-2.02891 -3.1657,-4.05874 -4.75,-6.08962 -3.5655,-4.06078 -7.1318,-8.12241 -10.6992,-12.18511 -2.3671,-2.37946 -4.7351,-4.75983 -7.1042,-7.14124 -3.373,-2.86425 -6.7468,-5.72938 -10.1216,-8.59556 -1.5538,-0.97932 -4.6643,-2.94089 -4.6643,-2.94089 z"
         inkscape:path-effect="#path-effect857"
         inkscape:label="midRib" />
      <path
         style="opacity:0.524859;fill:#254d2c;fill-opacity:1;stroke:#254d2c;stroke-opacity:0.101961"
         d="m 1708.1645,872.18339 c -0.019,2.26659 -0.038,4.53418 -0.09,7.24719 -0.052,2.71301 -0.1364,5.87231 -0.09,8.71878 0.046,2.84647 0.2221,5.3788 0.3984,7.91223 0.094,-3.39889 0.1876,-6.79681 0.5974,-10.44268 0.4097,-3.64587 1.1357,-7.53914 1.8616,-11.43171 0,0 -2.6771,-2.00381 -2.6771,-2.00381 z"
         id="path1885"
         sodipodi:nodetypes="ccccccc"
         inkscape:original-d="m 1708.1645,872.18339 c 0,0 -0.037,4.53419 -0.057,6.79978 -0.084,3.16044 -0.1682,6.31975 -0.2538,9.47812 0.1773,2.53448 0.5289,7.6003 0.5289,7.6003 0,0 0.1886,-6.79678 0.2814,-10.19667 0.7269,-3.89166 2.1776,-11.67772 2.1776,-11.67772 z"
         inkscape:path-effect="#path-effect1887"
         inkscape:label="path1885" />
    </g>
  </g>
</svg>
