<svg xmlns="http://www.w3.org/2000/svg" viewBox="0 0 725.014 725.014">
  <g style="display:inline">
    <path d="M458.511 267.541c5.585 3.533 16.755 10.6 22.436 14.219 5.68 3.618 5.873 3.79 6.066 3.96 1.643-2.072 3.285-4.142 5.32-6.33a66.573 66.573 0 0 1 7.372-6.8c2.909-2.31 6.298-4.624 10.152-7.092 3.854-2.47 8.173-5.092 12.364-7.29 4.19-2.2 8.252-3.973 11.267-5.065 3.016-1.091 4.986-1.5 7.327-1.844 2.342-.344 5.056-.624 8.025-.843 2.968-.218 6.192-.375 9.464.24 3.271.617 6.591 2.007 9.312 3.256 2.72 1.25 4.841 2.358 7.23 3.989 2.39 1.63 5.046 3.785 6.911 5.95 1.866 2.166 2.94 4.343 3.598 6.412.66 2.07.904 4.03 1.037 6.446.133 2.415.154 5.285-.626 7.765-.781 2.48-2.363 4.57-4.394 6.773-2.031 2.202-4.51 4.516-7.101 6.497-2.59 1.98-5.29 3.63-9.908 5.408-4.618 1.778-11.153 3.686-26.96 7.374-15.807 3.689-40.885 9.158-59.283 13.521-18.398 4.364-30.114 7.621-38.436 10.27-8.322 2.65-13.249 4.69-17.948 7.404-4.699 2.716-9.17 6.105-13.036 9.507-3.867 3.401-7.13 6.814-9.45 10.666-2.32 3.852-3.697 8.143-4.246 12.597-.548 4.454-.27 9.071.469 14.07.738 4.999 1.935 10.379 6.872 16.9 4.938 6.522 13.616 14.186 29.06 25.314 15.445 11.128 37.655 25.72 48.753 32.98 11.098 7.26 11.083 7.187 11.067 7.115 3.562-2.776 7.122-5.55 10.468-7.943s6.477-4.402 10.094-6.309c3.616-1.907 7.717-3.71 12.356-5.474 4.64-1.763 9.817-3.484 14.66-4.765 4.843-1.28 9.351-2.12 11.656-2.583 2.304-.464 2.406-.554 2.506-.643 3.456 4.414 6.912 8.827 11.077 13.47 4.165 4.644 9.038 9.517 14.755 14.977 5.717 5.46 12.278 11.508 17.557 15.895 5.28 4.387 9.278 7.114 13.742 9.933s9.393 5.73 15.659 9.2c6.266 3.468 13.87 7.495 21.052 9.663 7.184 2.168 13.947 2.478 17.358 2.65 3.412.173 3.47.21 3.528.245 2.213-3.512 4.426-7.023 5.523-8.775 1.096-1.752 1.077-1.743 1.057-1.733-5.836.329-11.672.658-15.918.657-4.245 0-6.902-.33-10.045-1.25-3.143-.92-6.774-2.431-11.04-4.426-4.267-1.995-9.17-4.474-13.655-6.83-4.485-2.358-8.554-4.594-13.602-8.278s-11.075-8.817-17.012-14.42c-5.937-5.603-11.784-11.675-18.164-18.172-6.38-6.498-13.294-13.42-13.115-16.912.18-3.49 7.452-3.55 14.747-3.623 7.295-.072 14.612-.158 21.857.306a141.893 141.893 0 0 1 21.51 3.042c7.093 1.564 14.11 3.678 21.733 6.378 7.622 2.7 15.85 5.985 21.867 9.648 6.016 3.662 9.821 7.701 13.237 12.434 3.416 4.732 6.443 10.157 7.992 12.853 1.549 2.695 1.623 2.661 1.695 2.628 1.173-3.34 2.345-6.677 3.02-8.3.675-1.623.853-1.529 1.03-1.434-3.705-4.333-7.41-8.666-10.949-12.516a161.79 161.79 0 0 0-10.813-10.754c-3.906-3.54-8.348-7.253-14.554-11.266-6.206-4.013-14.176-8.327-23.235-11.998-9.059-3.671-19.206-6.7-31.337-8.323-12.13-1.623-26.242-1.84-39.323-1.15-13.081.69-25.13 2.288-39.09 6.216-13.958 3.927-29.824 10.184-39.28 14.39-9.455 4.206-12.5 6.362-14.082 7.407-1.582 1.046-1.702.982-1.821.918-4.663-2.741-9.325-5.482-15.318-9.57s-13.317-9.522-18.805-13.932c-5.488-4.41-9.14-7.794-12.316-11.121-3.177-3.327-5.878-6.596-7.96-9.757-2.082-3.162-3.545-6.217-3.213-10.28.331-4.062 2.458-9.133 5.538-13.703s7.115-8.638 12.343-12.173c5.227-3.534 11.648-6.533 21.664-9.785 10.016-3.252 23.626-6.757 38.2-9.73 14.574-2.973 30.112-5.414 42.811-7.72 12.7-2.307 22.558-4.478 31.48-7.173 8.92-2.695 16.902-5.914 23.147-9.862 6.245-3.949 10.754-8.627 13.999-12.618 3.245-3.991 5.226-7.295 5.921-13.144.696-5.849.104-14.242-3.315-21.794-3.42-7.552-9.666-14.262-18.479-19.725-8.812-5.463-20.19-9.678-33.251-11.664-13.061-1.986-27.804-1.744-43.992 2.263-16.188 4.008-33.821 11.78-42.637 15.667-8.816 3.886-8.816 3.886-3.232 7.42z" style="display:inline;opacity:1;fill:#078545;fill-opacity:1" transform="translate(-2.363 -4.418)"/>
    <path d="M623.46 307.08c3.224 3.626 6.447 7.251 8.54 11.073 2.093 3.823 3.055 7.84 3.28 11.806.225 3.967-.287 7.88-1.467 11.212-1.18 3.331-3.027 6.08-7.73 9.944-4.702 3.863-12.259 8.841-19.944 12.726-7.685 3.885-15.5 6.676-23.181 8.95-7.682 2.272-15.232 4.026-25.253 5.678-10.02 1.651-22.512 3.201-33.325 4.601-10.813 1.4-19.948 2.65-27.204 3.927-7.256 1.278-12.633 2.583-17.663 4.172-5.03 1.59-9.713 3.463-15.418 6.067-5.704 2.605-12.43 5.941-15.633 9.594-3.202 3.654-2.88 7.622-2.559 11.592-6.024-7.847-12.048-15.693-13.13-21.716-1.083-6.022 2.777-10.221 8.408-14.174 5.631-3.953 13.034-7.658 19.308-10.185 6.274-2.527 11.42-3.874 20.747-5.586 9.327-1.712 22.835-3.787 32.428-5.202 9.593-1.415 15.268-2.17 22.54-3.031 7.27-.862 16.135-1.831 24.67-3.693 8.534-1.861 16.738-4.615 23.807-7.443 7.068-2.828 13.002-5.73 18.066-8.869 5.063-3.138 9.258-6.511 12.198-9.59 2.94-3.08 4.626-5.864 5.732-7.849 1.106-1.984 1.633-3.17 2-5.37.368-2.2.576-5.418.783-8.634z" style="display:inline;opacity:1;fill:#078545;fill-opacity:1" transform="translate(-2.363 -4.418)"/>
    <path d="m339.492 504.717-28.672.381-3.967 19.22c-3.967 19.222-11.905 57.663-15.851 76.852-3.932 19.115-3.888 19.053-3.907 19.014 8.397.022 16.794.045 20.99.082 4.237.037 1.777.02 1.774.071.495-7.386 2.69-14.745 3.313-18.427.632-3.736.7-4.009.736-4.181l22.88-.147 4.953 22.937 22.59.108c-8.234-38.732-16.468-77.464-20.609-96.783-4.14-19.319-4.184-19.222-4.23-19.127zm-52.397 115.467h-.199c.082.017.165.035.184.074l.015-.074zm39.252-87.452 8.32 36.062c-6.706-.02-11.12-.01-17.409-.091z" style="display:inline;opacity:1;fill:#078545;fill-opacity:1;stroke:#ecf5f6;stroke-opacity:.101049" transform="translate(-2.363 -4.418)"/>
    <g style="display:inline;opacity:1;fill:#078545;fill-opacity:1;stroke:#038944;stroke-opacity:1">
      <path d="M260.594 535.758c3.548.01 10.643.03 14.205.048 3.562.02 3.591.036 3.665-1.53.074-1.568.194-4.72-.025-7.54a28.681 28.681 0 0 0-1.67-7.762c-.892-2.452-2.12-4.867-3.51-6.88-1.391-2.011-2.946-3.62-5.192-5.309-2.247-1.689-5.186-3.458-7.932-4.555-2.746-1.097-5.298-1.521-7.762-1.775-2.464-.253-4.838-.335-7.59-.004-2.752.332-5.88 1.077-8.724 2.011-2.844.935-5.404 2.06-7.537 3.42-2.133 1.36-3.839 2.954-5.322 4.78-1.483 1.827-2.743 3.886-3.814 6.314-1.07 2.427-1.952 5.223-2.457 8.905-.504 3.682-.633 8.25-.548 11.949.084 3.698.382 6.526 1.818 9.848 1.436 3.323 4.01 7.14 9.504 12.183 5.493 5.044 13.904 11.315 18.125 14.45 4.22 3.135 4.25 3.135 4.708 3.626a27.452 27.452 0 0 1 2.26 2.762c.92 1.29 1.871 2.887 2.456 4.712.585 1.824.803 3.875.8 5.644-.002 1.768-.225 3.255-.97 4.727-.743 1.472-2.008 2.93-3.407 3.973-1.4 1.044-2.935 1.675-4.55 1.762a7.943 7.943 0 0 1-4.64-1.231c-1.33-.862-2.293-2.129-2.829-5.117-.535-2.987-.64-7.696-.704-10.16-.063-2.464-.085-2.684-4.179-2.782-4.093-.097-12.26-.071-16.333-.014-4.073.057-4.053.143-4.033.23.026 6.24.052 12.482 1.59 18.246 1.536 5.764 4.584 11.05 8.507 14.603 3.922 3.553 8.72 5.373 14.404 6.319 5.684.946 12.254 1.02 17.309.157 5.054-.863 8.593-2.66 11.813-5.314 3.22-2.654 6.12-6.163 8.04-9.25 1.921-3.086 2.863-5.75 3.248-11.142.386-5.393.215-13.514-.449-18.79-.664-5.277-1.821-7.708-3.119-9.775-1.298-2.068-2.737-3.771-6.181-6.655-3.444-2.885-8.894-6.95-13.887-10.834-4.993-3.885-9.527-7.59-12.27-10.295-2.74-2.705-3.688-4.41-4.146-6.306-.458-1.897-.424-3.984-.199-5.599.226-1.615.644-2.757 1.423-3.79.778-1.033 1.917-1.956 2.936-2.614 1.02-.657 1.92-1.048 2.872-1.167.953-.119 1.957.034 3.07.416 1.113.381 2.335.99 3.338 1.768a8.257 8.257 0 0 1 2.367 2.879c.58 1.157.956 2.527 1.102 3.698.145 1.171.058 2.145-.016 3.223-.075 1.078-.138 2.26.013 2.865.15.605.512.634.874.663l3.548.01z" style="opacity:1;fill:#078545;fill-opacity:1;stroke:#038944;stroke-opacity:1" transform="translate(-2.363 -4.418)"/>
      <path d="M416.133 535.456c3.548.01 10.642.03 14.205.048 3.562.019 3.591.036 3.665-1.531.074-1.567.194-4.719-.025-7.539a28.681 28.681 0 0 0-1.67-7.762c-.892-2.452-2.12-4.867-3.51-6.88-1.391-2.011-2.946-3.62-5.192-5.31-2.247-1.688-5.186-3.457-7.932-4.554-2.746-1.097-5.298-1.521-7.762-1.775-2.464-.253-4.838-.336-7.59-.004-2.752.331-5.88 1.076-8.724 2.011-2.844.935-5.404 2.06-7.537 3.42-2.133 1.359-3.839 2.953-5.322 4.78-1.483 1.827-2.743 3.886-3.814 6.314-1.07 2.427-1.952 5.223-2.457 8.905-.504 3.682-.633 8.25-.548 11.949.084 3.698.382 6.526 1.818 9.848 1.436 3.323 4.01 7.14 9.504 12.183 5.493 5.044 13.904 11.315 18.125 14.45 4.22 3.135 4.25 3.135 4.708 3.626a27.452 27.452 0 0 1 2.26 2.762c.919 1.29 1.871 2.887 2.456 4.712.585 1.824.803 3.875.8 5.644-.002 1.768-.225 3.255-.97 4.727-.743 1.471-2.008 2.93-3.407 3.973-1.4 1.044-2.935 1.675-4.55 1.762a7.943 7.943 0 0 1-4.64-1.231c-1.33-.862-2.294-2.13-2.829-5.117-.535-2.988-.64-7.696-.704-10.16-.063-2.464-.085-2.684-4.179-2.782-4.093-.097-12.26-.071-16.333-.014-4.073.057-4.053.143-4.033.23.026 6.24.052 12.482 1.59 18.246 1.536 5.764 4.584 11.05 8.506 14.603 3.923 3.553 8.72 5.372 14.405 6.319 5.684.946 12.254 1.019 17.309.156 5.054-.862 8.593-2.66 11.813-5.314 3.219-2.653 6.12-6.162 8.04-9.249 1.921-3.086 2.863-5.75 3.248-11.143.386-5.392.215-13.514-.449-18.79s-1.821-7.707-3.12-9.774c-1.297-2.068-2.736-3.771-6.18-6.656-3.444-2.884-8.894-6.949-13.887-10.834-4.993-3.884-9.528-7.59-12.27-10.294-2.74-2.705-3.689-4.41-4.146-6.307-.458-1.896-.424-3.983-.199-5.598.226-1.615.644-2.757 1.423-3.79.778-1.033 1.916-1.956 2.936-2.614 1.02-.657 1.92-1.048 2.872-1.167.953-.119 1.957.034 3.07.416 1.113.381 2.335.99 3.338 1.768a8.257 8.257 0 0 1 2.367 2.879c.58 1.157.956 2.526 1.101 3.698.145 1.171.06 2.145-.015 3.223-.075 1.078-.138 2.26.013 2.865.15.605.512.634.874.663l3.548.01z" style="display:inline;opacity:.941232;fill:#078545;fill-opacity:1;stroke:#038944;stroke-opacity:1" transform="translate(-2.363 -4.418)"/>
      <path d="M483.627 499.805c-2.776-.045-5.48.15-7.91.541-4.863.782-8.636 2.346-11.809 4.328-3.173 1.982-5.746 4.382-8.277 8.157-2.531 3.774-5.02 8.922-6.239 17.394-1.22 8.472-1.17 20.269-1.144 26.166.025 5.897.024 5.897.072 11.998.048 6.101.145 18.304 1.404 27.32 1.26 9.017 3.917 16.582 8.596 20.82 4.679 4.236 10.2 7.86 16.958 9.11 6.759 1.251 14.595 1.614 20.783-.463 6.188-2.077 11.028-6.296 14.814-10.452 3.786-4.155 6.855-16.075 7.36-25.476.893-16.664.967-37.719.359-51.519-.61-13.8-1.879-17.686-3.877-21.254-1.999-3.568-4.724-6.819-8.551-9.584-3.827-2.765-8.756-5.045-14.196-6.185-2.72-.57-5.567-.856-8.343-.9zm.412 19.516c4.078.05 7.987 3.087 9.885 16.135 2.024 13.916 1.763 39.22-.413 53.214-2.175 13.995-6.266 16.682-10.279 16.801-4.013.12-7.948-2.328-10.138-15.984-2.19-13.656-2.633-38.52-.645-52.557 1.988-14.036 6.408-17.243 10.773-17.582.273-.021.545-.03.817-.027z" style="display:inline;opacity:1;fill:#078545;fill-opacity:1;stroke:#ecf5f6;stroke-opacity:.101049" transform="translate(-2.363 -4.418)"/>
    </g>
    <path d="M364.974 4.418C270.07 4.391 175.74 43.432 108.614 110.52 41.485 177.608 2.389 271.917 2.362 366.82c-.027 94.905 39.014 189.236 106.102 256.362 67.087 67.127 161.396 106.223 256.3 106.25 94.904.027 189.235-39.014 256.362-106.101 67.126-67.088 106.222-161.397 106.25-256.301.027-94.904-39.014-189.235-106.102-256.362-67.088-67.126-161.397-106.222-256.3-106.25Zm-1.955 38.07c84.946.006 169.368 34.98 229.43 95.05 60.062 60.07 95.028 144.495 95.023 229.441-.005 84.946-34.98 169.367-95.05 229.43-60.07 60.062-144.496 95.026-229.442 95.021-84.946-.005-169.367-34.98-229.43-95.049-60.062-60.07-95.026-144.495-95.02-229.441.004-84.946 34.978-169.367 95.048-229.43 60.07-60.062 144.495-95.026 229.441-95.021Z" style="display:inline;opacity:1;fill:#078545;fill-opacity:1" transform="translate(-2.363 -4.418)"/>
    <path d="M127.463 307.465c-3.224 3.626-6.447 7.252-8.54 11.074-2.093 3.822-3.055 7.84-3.28 11.806-.225 3.966.287 7.88 1.467 11.211 1.18 3.332 3.028 6.081 7.73 9.945 4.702 3.863 12.259 8.841 19.944 12.726 7.686 3.885 15.5 6.676 23.181 8.949 7.682 2.273 15.232 4.026 25.253 5.678 10.021 1.652 22.512 3.202 33.325 4.602 10.814 1.4 19.948 2.65 27.204 3.927 7.256 1.277 12.633 2.583 17.663 4.172 5.03 1.59 9.713 3.462 15.418 6.067s12.431 5.941 15.633 9.594c3.202 3.653 2.88 7.622 2.56 11.591 6.023-7.846 12.047-15.693 13.13-21.715 1.082-6.023-2.778-10.222-8.409-14.174-5.631-3.953-13.033-7.658-19.307-10.185-6.274-2.527-11.42-3.875-20.747-5.587-9.328-1.711-22.836-3.787-32.429-5.202-9.592-1.414-15.268-2.169-22.539-3.03-7.27-.862-16.135-1.831-24.67-3.693s-16.739-4.616-23.807-7.444c-7.07-2.828-13.002-5.73-18.066-8.868-5.064-3.138-9.259-6.511-12.199-9.59-2.94-3.08-4.626-5.864-5.732-7.849-1.106-1.985-1.633-3.17-2-5.37s-.575-5.418-.783-8.635z" style="display:inline;opacity:1;fill:#078545;fill-opacity:1" transform="translate(-2.363 -4.418)"/>
    <path d="M289.65 267.323c-5.584 3.533-16.754 10.6-22.435 14.219-5.681 3.618-5.873 3.79-6.066 3.96-1.643-2.072-3.285-4.142-5.32-6.33a66.573 66.573 0 0 0-7.372-6.8c-2.91-2.31-6.298-4.624-10.152-7.092-3.855-2.469-8.173-5.092-12.364-7.29-4.19-2.2-8.252-3.973-11.268-5.065-3.015-1.091-4.985-1.5-7.327-1.844-2.341-.344-5.055-.624-8.024-.843-2.968-.218-6.192-.375-9.464.24-3.272.617-6.591 2.007-9.312 3.256-2.72 1.25-4.841 2.358-7.23 3.989-2.39 1.631-5.046 3.785-6.912 5.95-1.865 2.166-2.938 4.343-3.597 6.412-.66 2.07-.904 4.03-1.037 6.446-.133 2.415-.154 5.285.626 7.765.781 2.48 2.363 4.57 4.394 6.773 2.031 2.202 4.51 4.516 7.1 6.497 2.59 1.981 5.291 3.63 9.909 5.408 4.618 1.778 11.153 3.686 26.96 7.374 15.807 3.689 40.885 9.158 59.283 13.521 18.398 4.364 30.114 7.621 38.436 10.27 8.322 2.65 13.249 4.69 17.948 7.405 4.698 2.715 9.169 6.104 13.036 9.506 3.867 3.401 7.13 6.814 9.45 10.666 2.32 3.852 3.697 8.143 4.246 12.597.548 4.454.27 9.071-.469 14.07-.738 4.999-1.935 10.38-6.873 16.9-4.937 6.523-13.615 14.186-29.06 25.314-15.444 11.128-37.654 25.72-48.752 32.98-11.098 7.26-11.083 7.187-11.068 7.115-3.56-2.776-7.121-5.55-10.467-7.943-3.347-2.393-6.478-4.402-10.094-6.309-3.616-1.907-7.717-3.71-12.357-5.474-4.64-1.763-9.816-3.484-14.66-4.765-4.842-1.28-9.35-2.12-11.655-2.583-2.304-.464-2.406-.554-2.506-.643-3.456 4.414-6.913 8.827-11.077 13.47-4.165 4.644-9.039 9.517-14.756 14.977-5.717 5.46-12.277 11.508-17.556 15.895-5.28 4.387-9.278 7.114-13.742 9.933s-9.393 5.73-15.659 9.2c-6.266 3.468-13.87 7.495-21.053 9.663-7.183 2.168-13.946 2.478-17.94 2.753-3.993.276-5.217.517-6.44.758l-5.331-10.239 2.33-.349c5.807.15 11.615.3 15.847.21 4.232-.09 6.888-.42 10.032-1.34 3.143-.92 6.774-2.43 11.04-4.425 4.267-1.995 9.17-4.474 13.655-6.83 4.485-2.358 8.554-4.593 13.602-8.278 5.048-3.684 11.075-8.817 17.012-14.42 5.937-5.602 11.784-11.675 18.164-18.172 6.38-6.498 13.294-13.42 13.115-16.912-.18-3.49-7.452-3.55-14.747-3.622-7.295-.073-14.612-.159-21.857.305a141.893 141.893 0 0 0-21.51 3.042c-7.094 1.564-14.11 3.678-21.733 6.378-7.622 2.7-15.85 5.985-21.867 9.648-6.017 3.662-9.822 7.702-13.238 12.434-3.416 4.732-6.442 10.157-8.22 12.998-1.779 2.841-2.31 3.1-2.842 3.357-1.155-3.198-1.155-3.197-2.451-6.363-1.296-3.166-1.297-3.166-1.439-3.134 4.11-4.703 8.222-9.407 11.962-13.441 3.74-4.035 7.11-7.4 11.015-10.94 3.906-3.54 8.348-7.253 14.555-11.266 6.206-4.013 14.175-8.327 23.234-11.998 9.06-3.671 19.207-6.7 31.337-8.323 12.13-1.623 26.242-1.84 39.324-1.15 13.08.691 25.13 2.288 39.089 6.216 13.958 3.927 29.825 10.184 39.28 14.39 9.456 4.207 12.501 6.362 14.083 7.408 1.582 1.045 1.702.98 1.821.917 4.662-2.741 9.325-5.482 15.318-9.57s13.316-9.522 18.804-13.932c5.488-4.41 9.14-7.794 12.317-11.12 3.177-3.328 5.878-6.597 7.96-9.758 2.082-3.162 3.545-6.217 3.213-10.28-.331-4.062-2.458-9.133-5.538-13.703s-7.115-8.638-12.343-12.173c-5.228-3.534-11.649-6.533-21.664-9.785-10.016-3.252-23.626-6.757-38.2-9.73-14.575-2.973-30.113-5.414-42.812-7.72-12.698-2.307-22.558-4.478-31.478-7.173-8.921-2.695-16.903-5.914-23.148-9.862-6.246-3.949-10.754-8.627-13.999-12.618-3.245-3.991-5.226-7.295-5.922-13.144-.695-5.849-.103-14.242 3.316-21.794s9.665-14.262 18.478-19.725c8.813-5.463 20.191-9.678 33.252-11.664 13.06-1.986 27.803-1.744 43.992 2.264 16.188 4.007 33.821 11.78 42.637 15.666 8.816 3.886 8.816 3.886 3.232 7.42z" style="display:inline;opacity:1;fill:#078545;fill-opacity:1" transform="translate(-2.363 -4.418)"/>
    <path d="m248.766 363.522 12.228-18.157 8.913 1.932-12.295 17.708zM205.57 418.357c6.314-6.078 12.627-12.155 17.22-17.82 4.594-5.663 7.468-10.914 10.342-16.164l8.618 1.164c-4.02 6.37-8.04 12.741-12.523 18.485-4.482 5.745-9.427 10.862-14.372 15.98l-9.284-1.645zM501.665 363.446l-12.229-18.157-8.912 1.932 12.295 17.708zM543.003 418.042c-6.314-6.077-12.627-12.155-17.22-17.819-4.594-5.664-7.468-10.914-10.342-16.165l-8.617 1.164c4.02 6.37 8.04 12.741 12.522 18.486 4.483 5.744 9.428 10.862 14.372 15.98l9.285-1.646z" style="opacity:1;fill:#ed008c;fill-opacity:1;stroke:#ed008c;stroke-opacity:1" transform="translate(-2.363 -4.418)"/>
    <path d="m374.38 134.79-97.747 190.468 28.933 7.75 19.137-38.472 99.002.046 18.957 38.356 29.851-8.26zm-1.048 63.093 34.611 64.221-67.174-.264z" style="display:inline;opacity:1;fill:#ed008c;fill-opacity:1;stroke:#ed008c;stroke-opacity:1" transform="translate(-2.363 -4.418)"/>
  </g>
</svg>
