<svg xmlns="http://www.w3.org/2000/svg" viewBox="0 0 51.716 52.364">
  <path d="M1703.615 868.927c-.972 6.19-1.944 12.379.028 18.979 1.97 6.6 6.884 13.611 12.458 18.369 5.574 4.757 11.809 7.261 16.42 8.928 4.61 1.666 7.597 2.495 10.762 3.118 3.164.623 6.506 1.04 9.848 1.459-.728-5.427-1.455-10.853-2.66-15.819-1.204-4.965-2.885-9.468-5.215-13.689-2.33-4.22-5.307-8.156-7.594-10.814-2.288-2.658-3.886-4.036-6.774-5.772-2.887-1.736-7.065-3.829-11.826-4.681-4.76-.853-10.104-.466-15.447-.078z" style="display:inline;opacity:1;fill:#256d2d;fill-opacity:.996078;stroke:#256d2d;stroke-opacity:.101961" transform="translate(-1701.997 -867.992)"/>
  <g style="fill:#254d2c;fill-opacity:1;stroke:#254d2c;stroke-opacity:.101961">
    <path stroke="none" d="M1712.638 873.475c.541-.346 3.18-.071 6.174.384a138.8 138.8 0 0 1 8.971 1.68c2.626.59 4.528 1.134 5.805 1.65 1.277.515 1.927 1 2.578 1.487-1.437-.559-2.874-1.117-4.894-1.545-2.02-.428-4.622-.724-7.396-.932-2.775-.207-5.722-.326-8.668-.445-1.556-.967-3.111-1.933-2.57-2.279zM1717.671 880.785c-.303.988-.91 2.964-1.515 6.009a115.446 115.446 0 0 0-1.494 10.133c-.288 2.976-.262 4.816-.237 6.656.169-1.678.337-3.355.59-4.938.252-1.584.589-3.073 1.196-5.321.607-2.249 1.486-5.257 2.089-7.304.602-2.046.93-3.131 1.099-3.677.169-.546.179-.551.19-.557l-1.744-1.574.109-.346c.022-.07.02-.07-.283.919zM1725.382 887.515c-.525 2.035-1.05 4.07-1.625 7.205-.576 3.134-1.202 7.367-1.344 10.153-.141 2.786.201 4.124.544 5.462.125-2.454.25-4.907.594-7.632.344-2.724.907-5.72 1.636-7.871.73-2.153 1.624-3.461 2.52-4.77l-2.325-2.547zM1731.793 894.54c-.39 3.862-.78 7.726-.642 10.895.138 3.17.803 5.643 1.329 7.154.526 1.51.91 2.055 1.297 2.601-.412-1.74-.823-3.48-1.048-5.615-.224-2.135-.262-4.663-.119-6.909.143-2.246.467-4.21.79-6.173l-1.606-1.954zM1740.383 904.076c.011 2.292.023 4.585.466 6.812.443 2.226 1.317 4.385 2.19 6.546-.479-2.226-.958-4.452-1.076-6.183-.118-1.731.126-2.968.37-4.204l-1.934-2.233-.016-.738zM1723.852 881.417c1.326.2 3.651.645 6.698 1.747 3.047 1.102 6.812 2.86 9.295 4.307 2.482 1.447 3.679 2.58 4.876 3.715-1.494-.781-2.987-1.562-4.449-2.222-1.461-.66-2.89-1.197-5.102-1.925a250.435 250.435 0 0 0-7.145-2.214c-1.936-.565-2.81-.775-3.34-.993-.53-.219-.71-.445-.888-.67l-1.928-1.857c.328-.045.657-.089 1.983.112zM1730.202 889.666c1.868.572 3.735 1.144 6.368 2.21 2.633 1.066 6.031 2.626 8.145 3.865 2.113 1.239 2.941 2.155 3.77 3.072-1.862-1.09-3.723-2.181-5.883-3.232-2.16-1.05-4.62-2.06-6.335-2.584-1.715-.524-2.686-.563-3.657-.602l-2.332-2.584-.075-.145zM1738.758 899.685c1.34.42 2.681.84 4.305 1.54 1.624.698 3.532 1.674 4.824 2.381 1.291.707 1.965 1.143 2.64 1.58-1.009-.471-2.016-.941-3.634-1.437-1.618-.495-3.846-1.014-6.073-1.533l-2.062-2.53zM1747.323 910.937c.84.375 1.681.75 2.464 1.297.783.546 1.508 1.262 2.234 1.979-.691-.415-1.381-.828-1.988-1.102-.606-.273-1.13-.406-1.65-.538l-1.06-1.636z" style="opacity:.546777;fill:#254d2c;fill-opacity:1;stroke:#254d2c;stroke-width:0;stroke-dasharray:none;stroke-opacity:.101961" transform="translate(-1701.997 -867.992)"/>
    <path stroke="none" d="M1704.537 869.791c1.775.556 3.551 1.112 6.63 3.097 3.08 1.985 7.465 5.4 11.815 9.494 4.351 4.095 8.668 8.87 11.898 12.64 3.23 3.769 5.374 6.532 7.172 8.862 1.798 2.329 3.251 4.224 4.904 6.575a174.74 174.74 0 0 1 4.476 6.71c.97 1.55 1.062 1.847 1.091 1.986.03.14-.01.121-.039.104-1.358-1.9-2.714-3.8-4.482-5.886-1.768-2.086-3.947-4.357-5.828-6.507-1.88-2.15-3.464-4.18-6.039-7.227a354.359 354.359 0 0 0-9.108-10.328c-2.967-3.221-5.335-5.602-8.206-8.225-2.871-2.622-6.245-5.488-8.71-7.41-2.464-1.923-4.02-2.904-5.574-3.885z" style="display:inline;opacity:.524859;fill:#254d2c;fill-opacity:1;stroke:#254d2c;stroke-width:0;stroke-dasharray:none;stroke-opacity:.101961" transform="translate(-1701.997 -867.992)"/>
    <path d="M1708.165 872.183c-.02 2.267-.038 4.535-.09 7.248s-.137 5.872-.09 8.718c.046 2.847.222 5.38.398 7.913.094-3.4.188-6.797.597-10.443.41-3.646 1.136-7.54 1.862-11.432l-2.677-2.004z" style="opacity:.524859;fill:#254d2c;fill-opacity:1;stroke:#254d2c;stroke-opacity:.101961" transform="translate(-1701.997 -867.992)"/>
  </g>
</svg>
